<?xml version="1.0" encoding="UTF-8" standalone="no"?>
<!DOCTYPE svg PUBLIC "-//W3C//DTD SVG 1.1//EN" "http://www.w3.org/Graphics/SVG/1.1/DTD/svg11.dtd">
<svg width="100%" height="100%" viewBox="0 0 8 32" version="1.1" xmlns="http://www.w3.org/2000/svg" xmlns:xlink="http://www.w3.org/1999/xlink" xml:space="preserve" xmlns:serif="http://www.serif.com/" style="fill-rule:evenodd;clip-rule:evenodd;">
    <g transform="matrix(1,0,0,1,-109.927,-60.5252)">
        <path d="M113.624,71.131C113.158,70.06 113.135,68.847 113.557,67.758" style="fill:none;stroke:rgb(31,31,31);stroke-width:0.5px;"/>
    </g>
    <g transform="matrix(1,0,0,1,-109.927,-60.5252)">
        <path d="M113.624,71.131C113.908,71.787 113.859,72.54 113.493,73.154" style="fill:none;stroke:rgb(31,31,31);stroke-width:0.5px;"/>
    </g>
    <g transform="matrix(1,0,0,1,-109.927,-60.5252)">
        <path d="M113.553,66.544C113.707,66.934 113.709,67.367 113.557,67.758" style="fill:none;stroke:rgb(31,31,31);stroke-width:0.5px;"/>
    </g>
    <g transform="matrix(1,0,0,1,-109.927,-60.5252)">
        <path d="M113.553,66.544C113.336,65.994 113.427,65.368 113.792,64.903" style="fill:none;stroke:rgb(31,31,31);stroke-width:0.5px;"/>
    </g>
    <g transform="matrix(1,0,0,1,-109.927,-60.5252)">
        <path d="M113.565,62.609C114.24,63.185 114.341,64.205 113.792,64.903" style="fill:none;stroke:rgb(31,31,31);stroke-width:0.5px;"/>
    </g>
    <g transform="matrix(1,0,0,1,-109.927,-60.5252)">
        <path d="M113.941,77.158C113.805,76.265 114.42,75.415 115.311,75.265" style="fill:none;stroke:rgb(31,31,31);stroke-width:0.5px;"/>
    </g>
    <g transform="matrix(1,0,0,1,-109.927,-60.5252)">
        <path d="M113.941,77.158C113.351,76.539 113.022,75.716 113.022,74.861C113.022,73.512 113.842,72.29 115.091,71.779" style="fill:none;stroke:rgb(31,31,31);stroke-width:0.5px;"/>
    </g>
    <g transform="matrix(1,0,0,1,-109.927,-60.5252)">
        <path d="M113.624,71.131C113.595,69.6 115.063,69.565 115.061,68.441" style="fill:none;stroke:rgb(31,31,31);stroke-width:0.5px;"/>
    </g>
    <g transform="matrix(1,0,0,1,-109.927,-60.5252)">
        <path d="M113.553,66.544C113.517,65.365 115.138,65.595 115.395,64.684" style="fill:none;stroke:rgb(31,31,31);stroke-width:0.5px;"/>
    </g>
    <g transform="matrix(1,0,0,1,-109.927,-60.5252)">
        <path d="M113.302,68.732C113.408,67.994 111.267,67.814 112.267,66.661" style="fill:none;stroke:rgb(31,31,31);stroke-width:0.5px;"/>
    </g>
    <g transform="matrix(1,0,0,1,-109.927,-60.5252)">
        <path d="M112.157,71.877C112.698,72.189 113.157,72.627 113.493,73.154" style="fill:none;stroke:rgb(31,31,31);stroke-width:0.3px;"/>
    </g>
    <g transform="matrix(1,0,0,1,-109.927,-60.5252)">
        <path d="M111.579,74.405C112.313,74.438 112.943,74.953 113.121,75.666" style="fill:none;stroke:rgb(31,31,31);stroke-width:0.3px;"/>
    </g>
    <g transform="matrix(1,0,0,1,-109.927,-60.5252)">
        <path d="M116.347,75.598C116.251,75.669 116.135,75.708 116.015,75.708C115.711,75.708 115.46,75.457 115.46,75.153C115.46,74.848 115.711,74.598 116.015,74.598C116.069,74.598 116.122,74.605 116.173,74.621" style="fill:none;stroke:rgb(0,168,112);stroke-width:0.3px;"/>
    </g>
    <g transform="matrix(1,0,0,1,-109.927,-60.5252)">
        <path d="M116.347,75.598L117.237,74.936" style="fill:none;stroke:rgb(0,168,112);stroke-width:0.3px;"/>
    </g>
    <g transform="matrix(1,0,0,1,-109.927,-60.5252)">
        <path d="M117.237,74.936L116.173,74.621" style="fill:none;stroke:rgb(0,168,112);stroke-width:0.3px;"/>
    </g>
    <g transform="matrix(1,0,0,1,-109.927,-60.5252)">
        <path d="M116.087,71.969C115.991,72.04 115.875,72.079 115.756,72.079C115.451,72.079 115.201,71.828 115.201,71.524C115.201,71.22 115.451,70.969 115.756,70.969C115.809,70.969 115.862,70.977 115.913,70.992" style="fill:none;stroke:rgb(0,168,112);stroke-width:0.3px;"/>
    </g>
    <g transform="matrix(1,0,0,1,-109.927,-60.5252)">
        <path d="M116.087,71.969L116.977,71.307" style="fill:none;stroke:rgb(0,168,112);stroke-width:0.3px;"/>
    </g>
    <g transform="matrix(1,0,0,1,-109.927,-60.5252)">
        <path d="M116.977,71.307L115.913,70.992" style="fill:none;stroke:rgb(0,168,112);stroke-width:0.3px;"/>
    </g>
    <g transform="matrix(1,0,0,1,-109.927,-60.5252)">
        <path d="M111.531,73.464C111.732,73.538 111.866,73.731 111.866,73.945C111.866,74.226 111.634,74.458 111.353,74.458C111.126,74.458 110.925,74.308 110.861,74.091" style="fill:none;stroke:rgb(0,168,112);stroke-width:0.3px;"/>
    </g>
    <g transform="matrix(1,0,0,1,-109.927,-60.5252)">
        <path d="M111.531,73.464L110.569,73.107" style="fill:none;stroke:rgb(0,168,112);stroke-width:0.3px;"/>
    </g>
    <g transform="matrix(1,0,0,1,-109.927,-60.5252)">
        <path d="M110.569,73.107L110.861,74.091" style="fill:none;stroke:rgb(0,168,112);stroke-width:0.3px;"/>
    </g>
    <g transform="matrix(1,0,0,1,-109.927,-60.5252)">
        <path d="M111.951,71.056C112.151,71.13 112.285,71.323 112.285,71.537C112.285,71.818 112.054,72.05 111.772,72.05C111.546,72.05 111.345,71.9 111.281,71.682" style="fill:none;stroke:rgb(0,168,112);stroke-width:0.3px;"/>
    </g>
    <g transform="matrix(1,0,0,1,-109.927,-60.5252)">
        <path d="M111.951,71.056L110.989,70.699" style="fill:none;stroke:rgb(0,168,112);stroke-width:0.3px;"/>
    </g>
    <g transform="matrix(1,0,0,1,-109.927,-60.5252)">
        <path d="M110.989,70.699L111.281,71.682" style="fill:none;stroke:rgb(0,168,112);stroke-width:0.3px;"/>
    </g>
    <g transform="matrix(1,0,0,1,-109.927,-60.5252)">
        <path d="M112.972,65.895C112.99,65.947 112.998,66.001 112.998,66.056C112.998,66.338 112.767,66.569 112.485,66.569C112.204,66.569 111.972,66.338 111.972,66.056C111.972,65.952 112.004,65.85 112.064,65.764" style="fill:none;stroke:rgb(0,168,112);stroke-width:0.3px;"/>
    </g>
    <g transform="matrix(1,0,0,1,-109.927,-60.5252)">
        <path d="M112.972,65.895L112.649,64.921" style="fill:none;stroke:rgb(0,168,112);stroke-width:0.3px;"/>
    </g>
    <g transform="matrix(1,0,0,1,-109.927,-60.5252)">
        <path d="M112.649,64.921L112.064,65.764" style="fill:none;stroke:rgb(0,168,112);stroke-width:0.3px;"/>
    </g>
    <g transform="matrix(1,0,0,1,-109.927,-60.5252)">
        <path d="M115.734,67.637C115.751,67.689 115.76,67.744 115.76,67.799C115.76,68.08 115.529,68.312 115.247,68.312C114.966,68.312 114.734,68.08 114.734,67.799C114.734,67.694 114.766,67.592 114.826,67.506" style="fill:none;stroke:rgb(0,168,112);stroke-width:0.3px;"/>
    </g>
    <g transform="matrix(1,0,0,1,-109.927,-60.5252)">
        <path d="M115.734,67.637L115.411,66.663" style="fill:none;stroke:rgb(0,168,112);stroke-width:0.3px;"/>
    </g>
    <g transform="matrix(1,0,0,1,-109.927,-60.5252)">
        <path d="M115.411,66.663L114.826,67.506" style="fill:none;stroke:rgb(0,168,112);stroke-width:0.3px;"/>
    </g>
    <g transform="matrix(1,0,0,1,-109.927,-60.5252)">
        <path d="M113.418,61.501C113.619,61.575 113.752,61.768 113.752,61.982C113.752,62.263 113.521,62.495 113.239,62.495C113.013,62.495 112.812,62.345 112.748,62.127" style="fill:none;stroke:rgb(0,168,112);stroke-width:0.3px;"/>
    </g>
    <g transform="matrix(1,0,0,1,-109.927,-60.5252)">
        <path d="M113.418,61.501L112.456,61.144" style="fill:none;stroke:rgb(0,168,112);stroke-width:0.3px;"/>
    </g>
    <g transform="matrix(1,0,0,1,-109.927,-60.5252)">
        <path d="M112.456,61.144L112.748,62.127" style="fill:none;stroke:rgb(0,168,112);stroke-width:0.3px;"/>
    </g>
    <g transform="matrix(1,0,0,1,-109.927,-60.5252)">
        <path d="M116.065,63.912C116.079,63.96 116.086,64.009 116.086,64.059C116.086,64.34 115.855,64.572 115.573,64.572C115.292,64.572 115.06,64.34 115.06,64.059C115.06,63.977 115.08,63.897 115.117,63.824" style="fill:none;stroke:rgb(0,168,112);stroke-width:0.3px;"/>
    </g>
    <g transform="matrix(1,0,0,1,-109.927,-60.5252)">
        <path d="M116.065,63.912L115.7,62.69" style="fill:none;stroke:rgb(0,168,112);stroke-width:0.3px;"/>
    </g>
    <g transform="matrix(1,0,0,1,-109.927,-60.5252)">
        <path d="M115.7,62.69L115.117,63.824" style="fill:none;stroke:rgb(0,168,112);stroke-width:0.3px;"/>
    </g>
    <g transform="matrix(1,0,0,1,-109.927,-60.5252)">
        <path d="M113.6,84.944C113.135,83.873 113.111,82.66 113.533,81.571" style="fill:none;stroke:rgb(31,31,31);stroke-width:0.5px;"/>
    </g>
    <g transform="matrix(1,0,0,1,-109.927,-60.5252)">
        <path d="M113.6,84.944C113.884,85.599 113.836,86.353 113.469,86.966" style="fill:none;stroke:rgb(31,31,31);stroke-width:0.5px;"/>
    </g>
    <g transform="matrix(1,0,0,1,-109.927,-60.5252)">
        <path d="M113.529,80.357C113.683,80.746 113.685,81.18 113.533,81.571" style="fill:none;stroke:rgb(31,31,31);stroke-width:0.5px;"/>
    </g>
    <g transform="matrix(1,0,0,1,-109.927,-60.5252)">
        <path d="M113.529,80.357C113.312,79.807 113.403,79.181 113.769,78.716" style="fill:none;stroke:rgb(31,31,31);stroke-width:0.5px;"/>
    </g>
    <g transform="matrix(1,0,0,1,-109.927,-60.5252)">
        <path d="M113.541,76.421C114.216,76.998 114.317,78.018 113.769,78.716" style="fill:none;stroke:rgb(31,31,31);stroke-width:0.5px;"/>
    </g>
    <g transform="matrix(1,0,0,1,-109.927,-60.5252)">
        <path d="M113.918,90.971C113.781,90.077 114.396,89.227 115.287,89.077" style="fill:none;stroke:rgb(31,31,31);stroke-width:0.5px;"/>
    </g>
    <g transform="matrix(1,0,0,1,-109.927,-60.5252)">
        <path d="M113.918,90.971C113.328,90.352 112.998,89.529 112.998,88.674C112.998,87.324 113.819,86.103 115.067,85.592" style="fill:none;stroke:rgb(31,31,31);stroke-width:0.5px;"/>
    </g>
    <g transform="matrix(1,0,0,1,-109.927,-60.5252)">
        <path d="M113.6,84.944C113.571,83.412 115.039,83.377 115.037,82.254" style="fill:none;stroke:rgb(31,31,31);stroke-width:0.5px;"/>
    </g>
    <g transform="matrix(1,0,0,1,-109.927,-60.5252)">
        <path d="M113.529,80.357C113.493,79.177 115.115,79.408 115.371,78.497" style="fill:none;stroke:rgb(31,31,31);stroke-width:0.5px;"/>
    </g>
    <g transform="matrix(1,0,0,1,-109.927,-60.5252)">
        <path d="M113.278,82.544C113.384,81.806 111.243,81.627 112.244,80.473" style="fill:none;stroke:rgb(31,31,31);stroke-width:0.5px;"/>
    </g>
    <g transform="matrix(1,0,0,1,-109.927,-60.5252)">
        <path d="M112.133,85.689C112.675,86.001 113.133,86.439 113.469,86.966" style="fill:none;stroke:rgb(31,31,31);stroke-width:0.3px;"/>
    </g>
    <g transform="matrix(1,0,0,1,-109.927,-60.5252)">
        <path d="M111.556,88.218C112.29,88.251 112.919,88.765 113.097,89.479" style="fill:none;stroke:rgb(31,31,31);stroke-width:0.3px;"/>
    </g>
    <g transform="matrix(1,0,0,1,-109.927,-60.5252)">
        <path d="M116.323,89.411C116.227,89.482 116.111,89.52 115.992,89.52C115.687,89.52 115.437,89.27 115.437,88.965C115.437,88.661 115.687,88.41 115.992,88.41C116.045,88.41 116.098,88.418 116.149,88.433" style="fill:none;stroke:rgb(0,168,112);stroke-width:0.3px;"/>
    </g>
    <g transform="matrix(1,0,0,1,-109.927,-60.5252)">
        <path d="M116.323,89.411L117.213,88.748" style="fill:none;stroke:rgb(0,168,112);stroke-width:0.3px;"/>
    </g>
    <g transform="matrix(1,0,0,1,-109.927,-60.5252)">
        <path d="M117.213,88.748L116.149,88.433" style="fill:none;stroke:rgb(0,168,112);stroke-width:0.3px;"/>
    </g>
    <g transform="matrix(1,0,0,1,-109.927,-60.5252)">
        <path d="M116.063,85.782C115.967,85.853 115.851,85.891 115.732,85.891C115.427,85.891 115.177,85.641 115.177,85.337C115.177,85.032 115.427,84.782 115.732,84.782C115.785,84.782 115.838,84.789 115.889,84.805" style="fill:none;stroke:rgb(0,168,112);stroke-width:0.3px;"/>
    </g>
    <g transform="matrix(1,0,0,1,-109.927,-60.5252)">
        <path d="M116.063,85.782L116.954,85.12" style="fill:none;stroke:rgb(0,168,112);stroke-width:0.3px;"/>
    </g>
    <g transform="matrix(1,0,0,1,-109.927,-60.5252)">
        <path d="M116.954,85.12L115.889,84.805" style="fill:none;stroke:rgb(0,168,112);stroke-width:0.3px;"/>
    </g>
    <g transform="matrix(1,0,0,1,-109.927,-60.5252)">
        <path d="M111.508,87.277C111.708,87.351 111.842,87.544 111.842,87.758C111.842,88.039 111.611,88.271 111.329,88.271C111.103,88.271 110.902,88.121 110.837,87.903" style="fill:none;stroke:rgb(0,168,112);stroke-width:0.3px;"/>
    </g>
    <g transform="matrix(1,0,0,1,-109.927,-60.5252)">
        <path d="M111.508,87.277L110.546,86.92" style="fill:none;stroke:rgb(0,168,112);stroke-width:0.3px;"/>
    </g>
    <g transform="matrix(1,0,0,1,-109.927,-60.5252)">
        <path d="M110.546,86.92L110.837,87.903" style="fill:none;stroke:rgb(0,168,112);stroke-width:0.3px;"/>
    </g>
    <g transform="matrix(1,0,0,1,-109.927,-60.5252)">
        <path d="M111.927,84.868C112.128,84.943 112.262,85.135 112.262,85.349C112.262,85.631 112.03,85.862 111.749,85.862C111.522,85.862 111.321,85.712 111.257,85.495" style="fill:none;stroke:rgb(0,168,112);stroke-width:0.3px;"/>
    </g>
    <g transform="matrix(1,0,0,1,-109.927,-60.5252)">
        <path d="M111.927,84.868L110.965,84.511" style="fill:none;stroke:rgb(0,168,112);stroke-width:0.3px;"/>
    </g>
    <g transform="matrix(1,0,0,1,-109.927,-60.5252)">
        <path d="M110.965,84.511L111.257,85.495" style="fill:none;stroke:rgb(0,168,112);stroke-width:0.3px;"/>
    </g>
    <g transform="matrix(1,0,0,1,-109.927,-60.5252)">
        <path d="M112.948,79.707C112.966,79.759 112.975,79.814 112.975,79.869C112.975,80.15 112.743,80.382 112.462,80.382C112.18,80.382 111.949,80.15 111.949,79.869C111.949,79.764 111.981,79.662 112.04,79.576" style="fill:none;stroke:rgb(0,168,112);stroke-width:0.3px;"/>
    </g>
    <g transform="matrix(1,0,0,1,-109.927,-60.5252)">
        <path d="M112.948,79.707L112.625,78.733" style="fill:none;stroke:rgb(0,168,112);stroke-width:0.3px;"/>
    </g>
    <g transform="matrix(1,0,0,1,-109.927,-60.5252)">
        <path d="M112.625,78.733L112.04,79.576" style="fill:none;stroke:rgb(0,168,112);stroke-width:0.3px;"/>
    </g>
    <g transform="matrix(1,0,0,1,-109.927,-60.5252)">
        <path d="M115.71,81.45C115.728,81.502 115.736,81.557 115.736,81.611C115.736,81.893 115.505,82.124 115.223,82.124C114.942,82.124 114.71,81.893 114.71,81.611C114.71,81.507 114.742,81.405 114.802,81.319" style="fill:none;stroke:rgb(0,168,112);stroke-width:0.3px;"/>
    </g>
    <g transform="matrix(1,0,0,1,-109.927,-60.5252)">
        <path d="M115.71,81.45L115.387,80.476" style="fill:none;stroke:rgb(0,168,112);stroke-width:0.3px;"/>
    </g>
    <g transform="matrix(1,0,0,1,-109.927,-60.5252)">
        <path d="M115.387,80.476L114.802,81.319" style="fill:none;stroke:rgb(0,168,112);stroke-width:0.3px;"/>
    </g>
    <g transform="matrix(1,0,0,1,-109.927,-60.5252)">
        <path d="M116.041,77.725C116.055,77.772 116.063,77.822 116.063,77.871C116.063,78.153 115.831,78.384 115.55,78.384C115.268,78.384 115.037,78.153 115.037,77.871C115.037,77.79 115.056,77.709 115.093,77.637" style="fill:none;stroke:rgb(0,168,112);stroke-width:0.3px;"/>
    </g>
    <g transform="matrix(1,0,0,1,-109.927,-60.5252)">
        <path d="M116.041,77.725L115.676,76.503" style="fill:none;stroke:rgb(0,168,112);stroke-width:0.3px;"/>
    </g>
    <g transform="matrix(1,0,0,1,-109.927,-60.5252)">
        <path d="M115.676,76.503L115.093,77.637" style="fill:none;stroke:rgb(0,168,112);stroke-width:0.3px;"/>
    </g>
</svg>
